<?xml version="1.0" encoding="utf-8"?>
<!-- Generator: Adobe Illustrator 16.0.0, SVG Export Plug-In . SVG Version: 6.00 Build 0)  -->
<!DOCTYPE svg PUBLIC "-//W3C//DTD SVG 1.1//EN" "http://www.w3.org/Graphics/SVG/1.1/DTD/svg11.dtd">
<svg version="1.1" id="Layer_1" xmlns="http://www.w3.org/2000/svg" xmlns:xlink="http://www.w3.org/1999/xlink" x="0px" y="0px"
	 width="300px" height="77px" viewBox="0 0 300 77" enable-background="new 0 0 300 77" xml:space="preserve">
<g>
	<g>
		<path fill="#FFFFFF" d="M24.891,43.719V18.221h6.242l3.074,14.125c0.258,1.162,0.387,2.438,0.387,3.824
			c0-1.104,0.148-2.367,0.443-3.789l2.925-14.16h6.358v25.498h-4.41V27.618c0-0.94,0.118-2.421,0.359-4.444
			c0,0.035-0.095,0.508-0.275,1.41c-0.141,0.73-0.295,1.465-0.463,2.205l-3.842,16.93h-2.34L29.69,26.77
			c-0.145-0.844-0.394-2.045-0.748-3.596c0.209,1.869,0.316,3.352,0.316,4.444v16.101H24.891z"/>
		<path fill="#FFFFFF" d="M56.042,43.719V18.221h4.792v25.498H56.042z"/>
		<path fill="#FFFFFF" d="M76.27,32.996v10.723h-4.707V18.221h6.902c2.742,0,4.697,0.674,5.864,2.025
			c0.985,1.154,1.476,2.934,1.476,5.344c0,3.033-0.99,5.127-2.973,6.277l3.459,11.852h-4.865l-2.915-10.723H76.27z M76.27,21.904
			v7.408h1.856c1.252,0,2.089-0.414,2.511-1.236c0.254-0.504,0.381-1.381,0.381-2.629c0-1.186-0.162-2.025-0.484-2.521
			c-0.438-0.683-1.297-1.021-2.574-1.021H76.27z"/>
		<path fill="#FFFFFF" d="M103.817,32.996l-2.912,10.723h-4.863L99.5,31.867c-1.984-1.15-2.975-3.244-2.975-6.277
			c0-2.41,0.494-4.189,1.477-5.344c1.168-1.352,3.123-2.025,5.865-2.025h6.896v25.498h-4.7V32.996H103.817z M104.374,21.904
			c-1.279,0-2.137,0.339-2.572,1.021c-0.325,0.496-0.486,1.336-0.486,2.521c0,1.248,0.129,2.125,0.381,2.629
			c0.422,0.822,1.256,1.236,2.51,1.236h1.857v-7.408H104.374z"/>
		<path fill="#FFFFFF" d="M120.263,24.109c0-1.988,0.633-3.543,1.9-4.674c1.308-1.174,3.136-1.764,5.487-1.764
			c2.275,0,4.046,0.623,5.314,1.869c1.182,1.176,1.771,2.734,1.771,4.674v13.066c0,2.117-0.568,3.779-1.708,4.99
			c-1.253,1.33-3.103,1.992-5.55,1.992c-4.811,0-7.216-2.361-7.216-7.088V24.109z M129.907,38.094v-14.23
			c0-1.766-0.812-2.646-2.428-2.646c-1.618,0-2.428,0.881-2.428,2.646v14.23c0,1.773,0.81,2.662,2.428,2.662
			C129.095,40.756,129.907,39.867,129.907,38.094z"/>
		<path fill="#FFFFFF" d="M149.504,32.996v10.723h-4.705V18.221h6.898c2.742,0,4.699,0.674,5.863,2.025
			c0.986,1.154,1.48,2.934,1.48,5.344c0,3.033-0.992,5.127-2.977,6.277l3.459,11.852h-4.863l-2.912-10.723H149.504z M149.504,21.904
			v7.408h1.855c1.252,0,2.09-0.414,2.51-1.236c0.254-0.504,0.381-1.381,0.381-2.629c0-1.186-0.162-2.025-0.484-2.521
			c-0.438-0.683-1.295-1.021-2.574-1.021H149.504z"/>
		<path fill="#FFFFFF" d="M167.473,37.246l4.492-0.564c0.17,2.529,1.211,3.791,3.125,3.791c0.873,0,1.574-0.229,2.098-0.686
			c0.527-0.459,0.791-1.051,0.791-1.779c0-1.326-1.271-3.039-3.809-5.143l-0.443-0.369c-1.938-1.623-3.256-2.859-3.957-3.707
			c-1.236-1.506-1.855-3.039-1.855-4.605c0-1.764,0.695-3.27,2.078-4.518c1.387-1.246,3.129-1.871,5.221-1.871
			c2.113,0,3.801,0.625,5.066,1.871c1.152,1.139,1.814,2.621,1.984,4.443l-4.6,0.545c-0.158-2.127-1.014-3.191-2.574-3.191
			c-1.674,0-2.514,0.789-2.514,2.363c0,1.482,1.479,3.416,4.434,5.803c0.07,0.059,0.16,0.135,0.271,0.229
			c1.818,1.471,3.061,2.662,3.734,3.582c1.025,1.361,1.541,2.861,1.541,4.496c0,1.82-0.676,3.338-2.025,4.549
			c-1.348,1.211-3.109,1.814-5.273,1.814c-2.447,0-4.361-0.676-5.74-2.027C168.266,41.025,167.586,39.352,167.473,37.246z"/>
		<path fill="#FFFFFF" d="M190.082,21.904v-3.684h14.473v3.684h-4.895v21.814h-4.703V21.904H190.082z"/>
		<path fill="#FFFFFF" d="M212.207,24.109c0-1.988,0.635-3.543,1.898-4.674c1.309-1.174,3.137-1.764,5.486-1.764
			c2.279,0,4.053,0.623,5.316,1.869c1.18,1.176,1.773,2.734,1.773,4.674v13.066c0,2.117-0.57,3.779-1.711,4.99
			c-1.25,1.33-3.1,1.992-5.547,1.992c-4.811,0-7.217-2.361-7.217-7.088V24.109z M221.85,38.094v-14.23
			c0-1.766-0.811-2.646-2.426-2.646c-1.619,0-2.426,0.881-2.426,2.646v14.23c0,1.773,0.807,2.662,2.426,2.662
			C221.039,40.756,221.85,39.867,221.85,38.094z"/>
		<path fill="#FFFFFF" d="M237.014,43.719V18.221h4.217l5.982,15.23c0.238,0.602,0.539,1.506,0.904,2.717
			c-0.355-1.68-0.535-2.828-0.535-3.438v-14.51h4.41v25.498h-4.41l-5.738-14.09c0-0.012-0.008-0.029-0.021-0.053l-0.084-0.211
			c-0.406-1.014-0.703-1.848-0.887-2.506c0.354,1.857,0.529,3.033,0.529,3.527v13.332H237.014z"/>
		<path fill="#FFFFFF" d="M262.85,43.719V18.221h12.26v3.684h-7.555v6.684H273v3.686h-5.445v7.619h7.555v3.826H262.85z"/>
	</g>
	<g>
		<path fill="#FFFFFF" d="M65.655,48.482h1.055v10.662h-1.055V48.482z"/>
		<path fill="#FFFFFF" d="M73.913,48.482h1.111l2.043,8.656v-8.635l0.936-0.016v10.656h-1.11l-1.983-8.469v8.469h-0.996V48.482z"/>
		<path fill="#FFFFFF" d="M85.179,48.482h3.638v1.029h-2.578v3.781h2.219v1.041h-2.219v4.811h-1.06V48.482z"/>
		<path fill="#FFFFFF" d="M95.616,48.482h2.08c1.246,0.004,1.871,0.697,1.871,2.082v1.682c0,0.861-0.451,1.457-1.352,1.788
			l1.783,5.11h-1.172l-1.471-4.969l-0.684,0.037v4.932h-1.057V48.482z M96.672,49.512v3.781h0.648c0.259,0,0.449-0.02,0.568-0.059
			c0.412-0.174,0.619-0.502,0.619-0.988v-1.682c0-0.703-0.329-1.053-0.98-1.053H96.672z"/>
		<path fill="#FFFFFF" d="M110.573,55.482l0.494,3.662h-1.074l-0.314-2.379h-2.146l-0.318,2.379h-1.066l0.479-3.641l1.106-7.021
			h1.742L110.573,55.482z M109.539,55.727l-0.938-6.338l-0.943,6.338H109.539z"/>
		<path fill="#FFFFFF" d="M117.754,48.482h2.082c1.246,0.004,1.867,0.697,1.867,2.082v1.682c0,0.861-0.449,1.457-1.348,1.788
			l1.781,5.11h-1.17l-1.473-4.969l-0.684,0.037v4.932h-1.057V48.482z M118.811,49.512v3.781h0.65c0.26,0,0.449-0.02,0.57-0.059
			c0.41-0.174,0.615-0.502,0.615-0.988v-1.682c0-0.703-0.324-1.053-0.98-1.053H118.811z"/>
		<path fill="#FFFFFF" d="M132.051,53.293v1.041h-2.222v3.781h2.579v1.029h-3.633V48.482h3.633v1.029h-2.579v3.781H132.051z"/>
		<path fill="#FFFFFF" d="M139.315,48.482h2.217c1.25,0.004,1.875,0.697,1.875,2.082v6.506c0,1.379-0.662,2.07-1.984,2.074h-2.107
			V48.482z M140.375,49.512v8.604h0.985c0.661,0,0.989-0.348,0.989-1.045v-6.506c0-0.703-0.328-1.053-0.989-1.053H140.375z"/>
		<path fill="#FFFFFF" d="M166.379,48.482h1.055v4.811h1.982v-4.811h1.055v10.662h-1.055v-4.811h-1.982v4.811h-1.055V48.482z"/>
		<path fill="#FFFFFF" d="M180.926,53.293v1.041h-2.221v3.781h2.578v1.029h-3.637V48.482h3.637v1.029h-2.578v3.781H180.926z"/>
		<path fill="#FFFFFF" d="M192.127,55.482l0.492,3.662h-1.07l-0.312-2.379h-2.148l-0.318,2.379h-1.068l0.484-3.641l1.104-7.021
			h1.738L192.127,55.482z M191.094,55.727l-0.938-6.338l-0.943,6.338H191.094z"/>
		<path fill="#FFFFFF" d="M202.799,48.482v1.029h-1.518v9.633h-1.049v-9.633h-1.523v-1.029H202.799z"/>
		<path fill="#FFFFFF" d="M209.572,48.482h1.055v10.662h-1.055V48.482z"/>
		<path fill="#FFFFFF" d="M217.834,48.482h1.109l2.041,8.656v-8.635l0.939-0.016v10.656h-1.111l-1.982-8.469v8.469h-0.996V48.482z"
			/>
		<path fill="#FFFFFF" d="M233.082,57.248c0,1.383-0.684,2.076-2.049,2.08c-1.359,0-2.041-0.693-2.041-2.08v-6.871
			c0-1.381,0.682-2.072,2.041-2.072c1.365,0,2.049,0.691,2.049,2.072v1.232h-1.055v-1.232c0-0.689-0.33-1.035-0.986-1.039h-0.012
			c-0.654,0-0.98,0.348-0.98,1.039v6.871c0,0.693,0.328,1.039,0.984,1.039c0.664,0,0.994-0.346,0.994-1.039v-2.914h-0.82v-1.041
			h1.875V57.248z"/>
	</g>
</g>
</svg>
