<?xml version="1.0" encoding="utf-8"?>
<!-- Generator: Adobe Illustrator 16.0.0, SVG Export Plug-In . SVG Version: 6.00 Build 0)  -->
<!DOCTYPE svg PUBLIC "-//W3C//DTD SVG 1.1//EN" "http://www.w3.org/Graphics/SVG/1.1/DTD/svg11.dtd">
<svg version="1.1" id="Layer_1" xmlns="http://www.w3.org/2000/svg" xmlns:xlink="http://www.w3.org/1999/xlink" x="0px" y="0px"
	 width="250px" height="250px" viewBox="0 0 250 250" enable-background="new 0 0 250 250" xml:space="preserve">
<path fill-rule="evenodd" clip-rule="evenodd" fill="#FFFFFF" d="M235.564,57.567c-8.014,3.458-16.771,5.882-26.018,7.07
	c9.473-5.659,16.678-14.27,20.047-24.821c-8.77,5.162-18.594,8.9-28.896,10.905c-8.189-8.769-20.047-14.159-33.232-14.159
	c-24.959,0-45.325,20.047-45.325,44.611c0,3.586,0.61,6.944,1.316,10.185c-37.78-1.809-71.25-19.512-93.555-46.649
	c-3.825,6.738-6.22,14.27-6.22,22.452c0,15.567,8.167,29.229,20.13,37.168c-7.4-0.123-14.376-2.157-20.502-5.528
	c0,0.243,0,0.351,0,0.594c0,5.785,1.097,11.055,3.118,16.073c5.525,14.033,18.13,24.585,33.364,27.59
	c-3.989,1.078-7.803,1.681-12.013,1.681c-2.879,0-5.751-0.385-8.51-0.955c5.88,17.766,22.546,30.683,42.312,31.18
	c-15.581,11.979-34.983,19.052-56.22,19.052c-3.712,0-7.193-0.251-10.927-0.603c20.172,12.623,44.001,20.025,69.57,20.025
	c70.876,0,114.638-49.027,126.017-100.001c2.045-9.107,2.986-18.083,2.986-26.976c0-1.929,0-3.955,0-5.764
	C221.779,74.333,229.594,66.42,235.564,57.567L235.564,57.567z"/>
</svg>
